<svg width="1050" height="147" viewBox="0 0 1050 147" fill="none" xmlns="http://www.w3.org/2000/svg">
<path d="M9.62116 5.17111C5.75319 6.56878 2.89285 9.1691 1.04013 12.9396L0 15.0848V72.7793V130.474L1.04013 132.619C2.92535 136.487 5.85071 139.055 9.78368 140.387C11.6689 141.038 12.6115 141.038 83.6976 140.973L155.694 140.875L157.969 139.77C160.959 138.307 163.527 135.739 164.99 132.749L166.095 130.474V72.7793V15.0848L164.99 12.8095C163.527 9.81918 160.959 7.25136 157.969 5.78869L155.694 4.68355L83.5351 4.61854C12.9691 4.55354 11.3439 4.55354 9.62116 5.17111ZM85.3228 44.3383C107.881 55.6172 107.1 55.1297 107.1 58.1525C107.1 61.1754 107.881 60.6878 85.3228 71.9667C63.1551 83.0505 63.3502 82.9855 61.0424 81.5553C60.4573 81.2303 59.7422 80.4502 59.4172 79.8651C58.8646 78.8575 58.8321 77.3948 58.8321 58.1525C58.8321 38.9102 58.8646 37.4475 59.4172 36.4399C59.7422 35.8548 60.4573 35.0747 61.0424 34.7497C63.3502 33.3195 63.1551 33.2545 85.3228 44.3383ZM49.991 93.8093C52.6889 95.077 55.6142 97.9048 56.7519 100.31L57.5319 102L100.112 102.098C139.702 102.195 142.757 102.228 143.732 102.748C146.853 104.471 146.885 109.086 143.765 110.971C142.725 111.621 142.01 111.621 100.112 111.719L57.5319 111.816L56.7519 113.507C55.6142 115.912 52.6889 118.74 49.991 120.007C47.9108 120.983 47.5857 121.048 44.0428 121.048C40.4349 121.048 40.2074 121.015 38.0296 119.942C35.2993 118.577 32.4714 115.879 31.3338 113.539L30.5537 111.882L26.9783 111.719C22.9803 111.556 21.7126 111.101 20.6075 109.314C19.8599 108.111 19.7949 105.933 20.4775 104.633C21.3876 102.878 22.9478 102.26 26.9458 102.098L30.5537 101.935L31.3338 100.278C32.3089 98.2624 35.2343 95.2395 37.217 94.2319C39.8498 92.8667 41.1175 92.6067 44.5304 92.7042C47.4232 92.7692 48.0408 92.8992 49.991 93.8093Z" fill="#FF6600"/>
<path d="M68.4208 58.1525C68.4208 64.5882 68.4858 69.8539 68.5833 69.8539C68.9083 69.8539 91.8236 58.315 91.8236 58.1525C91.8236 57.9899 68.9083 46.4511 68.5833 46.4511C68.4858 46.4511 68.4208 51.7167 68.4208 58.1525Z" fill="#FF6600"/>
<path d="M41.3125 102.65C39.8173 103.658 39.1672 104.893 39.1672 106.908C39.1672 108.924 39.8173 110.159 41.3125 111.166C41.9626 111.589 42.8402 111.784 44.0428 111.784C46.0581 111.784 47.2932 111.134 48.3008 109.639C49.1459 108.371 49.1459 105.446 48.3008 104.178C47.2932 102.683 46.0581 102.033 44.0428 102.033C42.8402 102.033 41.9626 102.228 41.3125 102.65Z" fill="#FF6600"/>
<path d="M240.391 116H219.043V63.223H199.949V48.398H259.486V63.223H240.391V116ZM290.303 117.542C280.815 117.542 273.699 115.328 268.955 110.9C264.29 106.393 261.957 99.3169 261.957 89.6708C261.957 84.3733 262.432 79.7479 263.38 75.7946C264.408 71.7622 265.634 68.9553 267.057 67.374C268.875 65.3183 272.196 63.6183 277.019 62.2742C281.921 60.9301 286.507 60.258 290.777 60.258C300.977 60.258 308.251 62.4323 312.599 66.781C316.948 71.1297 319.122 78.0875 319.122 87.6546C319.122 97.9333 316.79 105.484 312.125 110.307C307.46 115.13 300.186 117.542 290.303 117.542ZM290.658 103.666C293.742 103.666 295.758 102.598 296.707 100.463C297.656 98.2495 298.13 94.3753 298.13 88.8406C298.13 84.9663 297.932 82.0013 297.537 79.9456C297.142 77.8108 296.391 76.269 295.284 75.3202C294.256 74.2923 292.635 73.7784 290.421 73.7784C287.258 73.7784 285.44 74.0551 284.966 74.6086C284.333 75.1621 283.819 76.9015 283.424 79.827C283.028 82.7525 282.831 85.7965 282.831 88.9592C282.831 94.3357 283.345 98.1309 284.373 100.345C285.479 102.559 287.575 103.666 290.658 103.666ZM364.341 60.258C370.034 60.258 374.541 62.1556 377.862 65.9508C381.262 69.6669 382.962 76.1899 382.962 85.5198C382.962 92.4777 382.29 98.1705 380.945 102.598C379.601 106.947 378.059 109.833 376.32 111.256C374.581 112.679 371.536 113.826 367.188 114.695C362.918 115.565 358.49 116 353.905 116C352.56 116 350.307 115.921 347.144 115.763V132.604L326.864 133.434V61.444H343.468L345.484 69.8646C347.54 66.9391 350.149 64.6067 353.312 62.8672C356.553 61.1277 360.23 60.258 364.341 60.258ZM359.597 101.531C360.467 100.898 361.1 99.1193 361.495 96.1938C361.89 93.1893 362.088 90.3429 362.088 87.6546C362.088 83.2269 361.535 79.9456 360.428 77.8108C359.321 75.676 357.107 74.6086 353.786 74.6086C351.414 74.6086 349.2 74.8458 347.144 75.3202V101.649L350.465 102.005C351.493 102.084 352.956 102.124 354.853 102.124C357.542 102.124 359.123 101.926 359.597 101.531ZM819.822 116.949C816.58 116.949 813.892 115.881 811.757 113.747C809.701 111.612 808.674 108.726 808.674 105.089C808.674 101.926 809.741 99.2774 811.876 97.1426C814.09 94.9287 816.857 93.8218 820.178 93.8218C823.34 93.8218 825.989 94.9287 828.124 97.1426C830.259 99.2774 831.326 101.926 831.326 105.089C831.326 108.726 830.259 111.612 828.124 113.747C826.068 115.881 823.301 116.949 819.822 116.949ZM886.888 114.34C880.484 116.474 873.328 117.542 865.422 117.542C856.566 117.542 849.925 115.328 845.497 110.9C841.148 106.393 838.974 99.396 838.974 89.908C838.974 85.2431 839.606 80.6572 840.872 76.1504C842.137 71.5645 843.481 68.4809 844.904 66.8996C846.564 65.0811 849.806 63.5393 854.629 62.2742C859.531 61.0091 864.592 60.3766 869.81 60.3766C875.266 60.3766 880.761 60.851 886.295 61.7998C886.137 63.7765 885.86 66.1089 885.465 68.7972C885.149 71.4064 884.793 73.7389 884.398 75.7946C879.496 75.4783 874.87 75.3202 870.522 75.3202C866.252 75.3202 863.524 75.5574 862.338 76.0318C861.706 76.269 861.113 77.8899 860.559 80.8944C860.085 83.8989 859.848 86.7058 859.848 89.315C859.848 92.7939 860.322 95.4822 861.271 97.3798C862.299 99.1983 863.88 100.463 866.015 101.175C868.15 101.887 871.035 102.242 874.673 102.242C876.254 102.242 879.733 102.084 885.109 101.768L886.888 114.34ZM920.018 117.542C910.53 117.542 903.414 115.328 898.67 110.9C894.005 106.393 891.672 99.3169 891.672 89.6708C891.672 84.3733 892.147 79.7479 893.095 75.7946C894.123 71.7622 895.349 68.9553 896.772 67.374C898.591 65.3183 901.911 63.6183 906.734 62.2742C911.637 60.9301 916.222 60.258 920.492 60.258C930.692 60.258 937.966 62.4323 942.314 66.781C946.663 71.1297 948.837 78.0875 948.837 87.6546C948.837 97.9333 946.505 105.484 941.84 110.307C937.175 115.13 929.901 117.542 920.018 117.542ZM920.373 103.666C923.457 103.666 925.473 102.598 926.422 100.463C927.371 98.2495 927.845 94.3753 927.845 88.8406C927.845 84.9663 927.648 82.0013 927.252 79.9456C926.857 77.8108 926.106 76.269 924.999 75.3202C923.971 74.2923 922.35 73.7784 920.136 73.7784C916.974 73.7784 915.155 74.0551 914.681 74.6086C914.048 75.1621 913.534 76.9015 913.139 79.827C912.743 82.7525 912.546 85.7965 912.546 88.9592C912.546 94.3357 913.06 98.1309 914.088 100.345C915.195 102.559 917.29 103.666 920.373 103.666ZM1041.85 65.2392C1043.12 67.1368 1043.75 74.49 1043.75 87.2988V116H1023.47V89.315V82.9106C1023.47 79.9851 1023.19 78.2457 1022.64 77.6922C1022.01 77.0597 1020.66 76.7434 1018.61 76.7434L1017.18 76.862C1014.73 77.0201 1012.4 77.5736 1010.19 78.5224C1010.27 80.1828 1010.3 83.1083 1010.3 87.2988V116H990.024V89.315V82.199C990.024 79.7479 989.747 78.2457 989.194 77.6922C988.561 77.0597 987.217 76.7434 985.161 76.7434L983.738 76.862C981.524 76.9411 979.231 77.455 976.859 78.4038V116H956.579V61.444H973.064L975.199 70.339C977.808 66.8601 980.813 64.3299 984.213 62.7486C987.612 61.0882 991.052 60.258 994.531 60.258C997.456 60.258 1000.22 60.6929 1002.83 61.5626C1005.52 62.4323 1007.38 63.6579 1008.41 65.2392C1008.88 65.9508 1009.28 67.2554 1009.59 69.153C1012.12 66.0694 1015.01 63.816 1018.25 62.3928C1021.49 60.9696 1024.73 60.258 1027.98 60.258C1030.9 60.258 1033.67 60.6929 1036.28 61.5626C1038.97 62.4323 1040.82 63.6579 1041.85 65.2392Z" fill="black"/>
<path d="M429.339 94.4148V116H407.991V94.652L385.22 48.398H406.923L415.937 70.339C416.886 72.5529 417.756 74.8853 418.546 77.3364H418.783C419.653 74.6481 420.523 72.2366 421.393 70.1018L430.288 48.398H451.873L429.339 94.4148ZM477.7 117.542C468.212 117.542 461.096 115.328 456.352 110.9C451.687 106.393 449.354 99.3169 449.354 89.6708C449.354 84.3733 449.829 79.7479 450.778 75.7946C451.805 71.7622 453.031 68.9553 454.454 67.374C456.273 65.3183 459.594 63.6183 464.417 62.2742C469.319 60.9301 473.905 60.258 478.174 60.258C488.374 60.258 495.648 62.4323 499.997 66.781C504.345 71.1297 506.52 78.0875 506.52 87.6546C506.52 97.9333 504.187 105.484 499.522 110.307C494.857 115.13 487.583 117.542 477.7 117.542ZM478.056 103.666C481.139 103.666 483.155 102.598 484.104 100.463C485.053 98.2495 485.527 94.3753 485.527 88.8406C485.527 84.9663 485.33 82.0013 484.934 79.9456C484.539 77.8108 483.788 76.269 482.681 75.3202C481.653 74.2923 480.032 73.7784 477.818 73.7784C474.656 73.7784 472.837 74.0551 472.363 74.6086C471.73 75.1621 471.216 76.9015 470.821 79.827C470.426 82.7525 470.228 85.7965 470.228 88.9592C470.228 94.3357 470.742 98.1309 471.77 100.345C472.877 102.559 474.972 103.666 478.056 103.666ZM568.817 61.444V116H552.332L550.078 106.868C544.385 113.747 537.586 117.186 529.679 117.186C526.833 117.186 524.144 116.791 521.614 116C519.163 115.209 517.305 114.063 516.04 112.561C515.328 111.691 514.775 109.517 514.38 106.038C514.063 102.559 513.905 97.2612 513.905 90.1452V61.444H534.186V89.908C534.186 91.4893 534.225 93.3474 534.304 95.4822C534.384 97.617 534.621 98.9611 535.016 99.5146C535.57 100.305 537.151 100.701 539.76 100.701L541.658 100.582C543.872 100.503 546.164 99.989 548.536 99.0402V61.444H568.817ZM603.685 93.5846C603.685 95.0078 603.724 96.5101 603.803 98.0914C603.882 99.5937 604.119 100.542 604.515 100.938C605.068 101.491 607.005 101.768 610.326 101.768L614.359 101.649C615.07 105.445 615.426 109.833 615.426 114.814C613.924 115.367 611.71 115.881 608.784 116.356C605.938 116.83 603.21 117.067 600.601 117.067C595.145 117.067 590.915 115.881 587.911 113.509C584.985 111.058 583.523 107.303 583.523 102.242V73.0668H574.628V62.2742L583.523 61.444L588.86 48.398L603.685 47.5678V61.444H616.256V73.0668H603.685V93.5846ZM676.877 61.444V116H660.392L658.139 106.868C652.446 113.747 645.646 117.186 637.739 117.186C634.893 117.186 632.205 116.791 629.675 116C627.224 115.209 625.365 114.063 624.1 112.561C623.389 111.691 622.835 109.517 622.44 106.038C622.124 102.559 621.966 97.2612 621.966 90.1452V61.444H642.246V89.908C642.246 91.4893 642.286 93.3474 642.365 95.4822C642.444 97.617 642.681 98.9611 643.076 99.5146C643.63 100.305 645.211 100.701 647.82 100.701L649.718 100.582C651.932 100.503 654.225 99.989 656.597 99.0402V61.444H676.877ZM723.249 60.258C729.416 60.258 734.16 62.1161 737.481 65.8322C740.881 69.5483 742.581 76.1109 742.581 85.5198C742.581 92.3986 741.869 98.2891 740.446 103.191C739.102 108.014 737.56 111.098 735.821 112.442C733.765 114.102 730.721 115.328 726.688 116.119C722.656 116.909 718.07 117.305 712.931 117.305C708.978 117.305 704.55 116.988 699.648 116.356C694.746 115.802 690.357 114.893 686.483 113.628V44.84L707.001 44.0098V55.1582C707.001 55.7907 706.961 57.2535 706.882 59.5464C706.882 61.8393 706.803 63.7765 706.645 65.3578C706.487 66.8601 706.25 68.0065 705.933 68.7972L706.645 69.6274C708.464 66.8601 710.757 64.6067 713.524 62.8672C716.291 61.1277 719.533 60.258 723.249 60.258ZM719.928 103.073C720.403 102.282 720.798 100.424 721.114 97.4984C721.51 94.5729 721.707 91.7661 721.707 89.0778C721.707 85.9151 721.549 83.4245 721.233 81.606C720.996 79.7875 720.324 78.3643 719.217 77.3364C718.189 76.2295 716.568 75.676 714.354 75.676C712.377 75.676 709.847 75.9527 706.764 76.5062V103.31C709.689 103.784 712.733 104.021 715.896 104.021C718.189 104.021 719.533 103.705 719.928 103.073ZM783.508 101.768C785.485 101.768 789.161 101.57 794.538 101.175C795.249 101.175 796.554 101.096 798.452 100.938L800.231 113.154C794.142 116 786.236 117.423 776.511 117.423C767.418 117.423 760.421 115.13 755.518 110.544C750.695 105.959 748.284 99.0402 748.284 89.7894C748.284 85.0454 748.877 80.4595 750.063 76.0318C751.328 71.6041 752.751 68.5205 754.332 66.781C755.993 65.0415 759.076 63.5393 763.583 62.2742C768.09 61.0091 772.557 60.3766 776.985 60.3766C784.101 60.3766 789.438 61.6417 792.996 64.1718C796.554 66.7019 798.886 70.2204 799.993 74.7272C801.1 79.1549 801.654 85.1245 801.654 92.6358C796.277 92.9521 791.019 93.1102 785.88 93.1102H769.039C769.039 95.6403 769.553 97.5379 770.581 98.803C771.688 100.068 773.229 100.898 775.206 101.294C777.183 101.61 779.95 101.768 783.508 101.768ZM770.225 74.49C769.75 74.7272 769.395 75.7551 769.157 77.5736C768.92 79.3921 768.762 81.4479 768.683 83.7408H774.85C778.566 83.7408 781.255 83.7013 782.915 83.6222C782.915 79.827 782.362 77.1387 781.255 75.5574C780.227 73.9761 778.408 73.1854 775.799 73.1854C773.664 73.1854 771.806 73.6203 770.225 74.49Z" fill="#FF6600"/>
</svg>
